<svg xmlns="http://www.w3.org/2000/svg" width="30" height="30" viewBox="0 0 30 30" fill="none">
<rect width="30" height="30" rx="15" fill="url(#paint0_linear_896_4154)"/>
<path d="M20.25 13.8701V10.3333C20.25 10.1786 20.1885 10.0303 20.0791 9.92085C19.9697 9.81146 19.8214 9.75 19.6667 9.75H19.0833C17.9289 10.9044 15.7601 11.5507 14.4167 11.8576V18.1424C15.7601 18.4492 17.9289 19.0956 19.0833 20.25H19.6667C19.8214 20.25 19.9697 20.1885 20.0791 20.0791C20.1885 19.9697 20.25 19.8214 20.25 19.6667V16.1299C20.5007 16.0655 20.7228 15.9195 20.8815 15.7149C21.0401 15.5103 21.1262 15.2588 21.1262 15C21.1262 14.7412 21.0401 14.4897 20.8815 14.2851C20.7228 14.0805 20.5007 13.9345 20.25 13.8701ZM10.9167 12.0833C10.6072 12.0833 10.3105 12.2062 10.0917 12.425C9.87292 12.6438 9.75 12.9406 9.75 13.25V16.75C9.75 17.0594 9.87292 17.3562 10.0917 17.575C10.3105 17.7937 10.6072 17.9167 10.9167 17.9167H11.5L12.0833 20.8333H13.25V12.0833H10.9167Z" fill="white"/>
<defs>
<linearGradient id="paint0_linear_896_4154" x1="0" y1="0" x2="36.5" y2="40" gradientUnits="userSpaceOnUse">
<stop stop-color="#6994A5"/>
<stop offset="1" stop-color="#BFD2D9"/>
</linearGradient>
</defs>
</svg>
