<svg xmlns="http://www.w3.org/2000/svg" width="29" height="24" viewBox="0 0 29 24" fill="none">
  <path d="M27.8334 20.1297C27.8334 20.7583 27.578 21.3612 27.1234 21.8058C26.6687 22.2503 26.0521 22.5 25.4092 22.5H3.59099C2.94804 22.5 2.33143 22.2503 1.87679 21.8058C1.42216 21.3612 1.16675 20.7583 1.16675 20.1297V7.09261C1.16675 6.46395 1.42216 5.86104 1.87679 5.41651C2.33143 4.97198 2.94804 4.72224 3.59099 4.72224H8.43947L10.8637 1.16669H18.1364L20.5607 4.72224H25.4092C26.0521 4.72224 26.6687 4.97198 27.1234 5.41651C27.578 5.86104 27.8334 6.46395 27.8334 7.09261V20.1297Z" stroke="#BAC2D0" stroke-width="2.33333" stroke-linecap="round" stroke-linejoin="round"/>
  <path d="M14.5001 17.7593C17.1778 17.7593 19.3486 15.6368 19.3486 13.0185C19.3486 10.4003 17.1778 8.2778 14.5001 8.2778C11.8223 8.2778 9.6516 10.4003 9.6516 13.0185C9.6516 15.6368 11.8223 17.7593 14.5001 17.7593Z" stroke="#BAC2D0" stroke-width="2.33333" stroke-linecap="round" stroke-linejoin="round"/>
</svg>

