<svg xmlns="http://www.w3.org/2000/svg" width="20" height="20" viewBox="0 0 20 20" fill="none">
  <path d="M9.99959 10.8335C10.4598 10.8335 10.8329 10.4604 10.8329 10.0002C10.8329 9.53993 10.4598 9.16683 9.99959 9.16683C9.53936 9.16683 9.16626 9.53993 9.16626 10.0002C9.16626 10.4604 9.53936 10.8335 9.99959 10.8335Z" fill="#4B5563"/>
  <path d="M9.99959 5.00016C10.4598 5.00016 10.8329 4.62707 10.8329 4.16683C10.8329 3.70659 10.4598 3.3335 9.99959 3.3335C9.53936 3.3335 9.16626 3.70659 9.16626 4.16683C9.16626 4.62707 9.53936 5.00016 9.99959 5.00016Z" fill="#4B5563"/>
  <path d="M9.99959 16.6668C10.4598 16.6668 10.8329 16.2937 10.8329 15.8335C10.8329 15.3733 10.4598 15.0002 9.99959 15.0002C9.53936 15.0002 9.16626 15.3733 9.16626 15.8335C9.16626 16.2937 9.53936 16.6668 9.99959 16.6668Z" fill="#4B5563"/>
  <path d="M9.99959 10.8335C10.4598 10.8335 10.8329 10.4604 10.8329 10.0002C10.8329 9.53993 10.4598 9.16683 9.99959 9.16683C9.53936 9.16683 9.16626 9.53993 9.16626 10.0002C9.16626 10.4604 9.53936 10.8335 9.99959 10.8335Z" stroke="#4B5563" stroke-width="0.729167" stroke-linecap="round" stroke-linejoin="round"/>
  <path d="M9.99959 5.00016C10.4598 5.00016 10.8329 4.62707 10.8329 4.16683C10.8329 3.70659 10.4598 3.3335 9.99959 3.3335C9.53936 3.3335 9.16626 3.70659 9.16626 4.16683C9.16626 4.62707 9.53936 5.00016 9.99959 5.00016Z" stroke="#4B5563" stroke-width="0.729167" stroke-linecap="round" stroke-linejoin="round"/>
  <path d="M9.99959 16.6668C10.4598 16.6668 10.8329 16.2937 10.8329 15.8335C10.8329 15.3733 10.4598 15.0002 9.99959 15.0002C9.53936 15.0002 9.16626 15.3733 9.16626 15.8335C9.16626 16.2937 9.53936 16.6668 9.99959 16.6668Z" stroke="#4B5563" stroke-width="0.729167" stroke-linecap="round" stroke-linejoin="round"/>
</svg>

