<svg xmlns="http://www.w3.org/2000/svg" width="20" height="20" viewBox="0 0 20 20" fill="none">
  <path d="M17.5464 13.7005V15.9586C17.5473 16.1682 17.5042 16.3757 17.4201 16.5678C17.3359 16.7598 17.2125 16.9323 17.0578 17.074C16.903 17.2157 16.7202 17.3236 16.5213 17.3907C16.3223 17.4579 16.1115 17.4829 15.9023 17.464C13.5815 17.2123 11.3522 16.4208 9.39355 15.1532C7.57129 13.9975 6.02632 12.4556 4.86838 10.637C3.59377 8.67333 2.80056 6.43765 2.553 4.11106C2.53415 3.90291 2.55894 3.69313 2.62578 3.49506C2.69262 3.297 2.80005 3.115 2.94123 2.96064C3.08241 2.80629 3.25425 2.68296 3.44581 2.59852C3.63736 2.51407 3.84444 2.47036 4.05385 2.47017H6.31643C6.68245 2.46657 7.03729 2.59593 7.31481 2.83412C7.59233 3.07232 7.7736 3.4031 7.82483 3.76481C7.92032 4.48746 8.09743 5.197 8.35276 5.8799C8.45424 6.14931 8.4762 6.44211 8.41604 6.72359C8.35589 7.00508 8.21615 7.26345 8.01337 7.4681L7.05555 8.42404C8.12919 10.3085 9.69256 11.8687 11.5807 12.9402L12.5385 11.9843C12.7436 11.7819 13.0025 11.6425 13.2845 11.5824C13.5666 11.5224 13.86 11.5443 14.1299 11.6456C14.8142 11.9004 15.5251 12.0772 16.2492 12.1725C16.6156 12.2241 16.9501 12.4082 17.1893 12.69C17.4285 12.9717 17.5556 13.3313 17.5464 13.7005Z" stroke="#4B5563" stroke-width="1.5" stroke-linecap="round" stroke-linejoin="round"/>
</svg>

