<svg xmlns="http://www.w3.org/2000/svg" width="24" height="24" viewBox="0 0 24 24" fill="none">
  <path d="M15.1129 3.21007L15.2069 3.29307L20.7069 8.79307C20.8755 8.96254 20.9778 9.1868 20.9952 9.4252C21.0127 9.6636 20.9442 9.90037 20.8021 10.0926C20.6601 10.2849 20.4538 10.4198 20.2208 10.4731C19.9878 10.5264 19.7434 10.4945 19.5319 10.3831L16.3599 13.5541L14.9359 17.3511C14.8984 17.4513 14.845 17.5448 14.7779 17.6281L14.7079 17.7081L13.2079 19.2081C13.0356 19.3801 12.8064 19.4833 12.5634 19.4984C12.3204 19.5135 12.0802 19.4394 11.8879 19.2901L11.7929 19.2071L8.99988 16.4151L5.20688 20.2071C5.02693 20.3864 4.78545 20.4905 4.5315 20.4983C4.27755 20.5061 4.03017 20.4169 3.83961 20.2488C3.64904 20.0808 3.52958 19.8465 3.50549 19.5936C3.48139 19.3407 3.55447 19.0881 3.70988 18.8871L3.79288 18.7931L7.58488 15.0001L4.79288 12.2071C4.62071 12.0349 4.51728 11.8058 4.502 11.5628C4.48671 11.3197 4.56063 11.0795 4.70988 10.8871L4.79288 10.7931L6.29288 9.29307C6.36834 9.21735 6.45544 9.15421 6.55088 9.10607L6.64888 9.06407L10.4449 7.63907L13.6159 4.46907C13.5078 4.2669 13.4724 4.03372 13.5157 3.80857C13.559 3.58343 13.6783 3.38 13.8537 3.23237C14.0291 3.08473 14.25 3.00185 14.4792 2.99761C14.7084 2.99337 14.9321 3.06902 15.1129 3.21007Z" fill="currentColor"/>
</svg>

