<svg xmlns="http://www.w3.org/2000/svg" width="24" height="24" viewBox="0 0 24 24" fill="none">
  <path d="M14.4883 3.49744C14.5976 3.49541 14.7061 3.53028 14.7959 3.59705L14.8672 3.66052L20.3535 9.14685C20.437 9.23134 20.4873 9.34282 20.4961 9.4613C20.5048 9.58039 20.4713 9.69922 20.4004 9.79529C20.3294 9.8914 20.2259 9.95907 20.1094 9.98572C19.9929 10.0124 19.8704 9.99649 19.7646 9.9408L19.4385 9.76892L19.1787 10.0297L16.0068 13.2006L15.9297 13.2767L14.4678 17.1752V17.1761C14.449 17.2261 14.4212 17.2723 14.3877 17.3138L14.3438 17.3646L12.8545 18.8539C12.7683 18.9399 12.6537 18.9918 12.5322 18.9994C12.4122 19.0068 12.2937 18.9707 12.1982 18.8978L12.1299 18.8373L9.35352 16.0619L9 15.7084L8.64648 16.0619L4.85352 19.8529C4.76365 19.9424 4.64335 19.9944 4.5166 19.9984C4.38963 20.0023 4.26521 19.9574 4.16992 19.8734C4.07488 19.7894 4.01497 19.6725 4.00293 19.5463C3.99119 19.423 4.02589 19.2998 4.09961 19.2006L4.16016 19.1322L8.29199 15.0004L7.93848 14.6469L5.14648 11.8539C5.06045 11.7678 5.00867 11.653 5.00098 11.5316C4.99355 11.4135 5.02814 11.2963 5.09863 11.2015L5.16016 11.1322L6.64648 9.64685L6.64746 9.64587C6.68286 9.6104 6.7233 9.58042 6.76758 9.55701L6.83203 9.52869L10.6211 8.10681L10.7217 8.06873L10.7988 7.99255L13.9697 4.82263L14.2314 4.55994L14.0566 4.23279C14.0028 4.1318 13.9852 4.01512 14.0068 3.90271C14.0285 3.79026 14.0882 3.68837 14.1758 3.61462C14.2634 3.54093 14.3738 3.49959 14.4883 3.49744Z" fill="currentColor" stroke="currentColor"/>
</svg>

