<svg xmlns="http://www.w3.org/2000/svg" width="46" height="46" viewBox="0 0 46 46" fill="none">
  <path d="M7.24113 7.00546C6.89421 7.69546 6.72363 8.55029 6.38246 10.2561L5.2363 15.987C5.07386 16.7683 5.0726 17.5746 5.2326 18.3565C5.3926 19.1384 5.71049 19.8794 6.16681 20.5342C6.62314 21.1889 7.20829 21.7436 7.88645 22.1644C8.56461 22.5852 9.32151 22.8631 10.1108 22.9812C10.9001 23.0992 11.7052 23.055 12.4768 22.8511C13.2484 22.6472 13.9703 22.288 14.5982 21.7955C15.2262 21.3029 15.747 20.6874 16.1288 19.9865C16.5106 19.2857 16.7454 18.5143 16.8187 17.7196L16.9529 16.3971C16.8802 17.2382 16.9839 18.0852 17.2571 18.884C17.5304 19.6828 17.9672 20.4158 18.5398 21.0362C19.1124 21.6566 19.8081 22.1508 20.5824 22.4871C21.3568 22.8234 22.1928 22.9944 23.037 22.9894C23.8812 22.9843 24.7151 22.8031 25.4854 22.4575C26.2556 22.1119 26.9453 21.6094 27.5104 20.9822C28.0755 20.3549 28.5035 19.6167 28.7671 18.8147C29.0307 18.0127 29.1241 17.1645 29.0413 16.3243L29.1812 17.7196C29.2545 18.5143 29.4893 19.2857 29.8711 19.9865C30.2529 20.6874 30.7737 21.3029 31.4017 21.7955C32.0296 22.288 32.7515 22.6472 33.5231 22.8511C34.2947 23.055 35.0998 23.0992 35.8891 22.9812C36.6784 22.8631 37.4353 22.5852 38.1135 22.1644C38.7916 21.7436 39.3768 21.1889 39.8331 20.5342C40.2894 19.8794 40.6073 19.1384 40.7673 18.3565C40.9273 17.5746 40.9261 16.7683 40.7636 15.987L39.6175 10.2561C39.2763 8.55029 39.1057 7.69737 38.7588 7.00546C38.3973 6.28486 37.8884 5.64834 37.2649 5.13719C36.6415 4.62604 35.9176 4.2517 35.1401 4.03846C34.3926 3.83337 33.5225 3.83337 31.7821 3.83337H14.2178C12.4775 3.83337 11.6073 3.83337 10.8598 4.03846C10.0823 4.2517 9.3584 4.62604 8.73498 5.13719C8.11157 5.64834 7.60261 6.28486 7.24113 7.00546ZM35.0155 25.875C36.5131 25.8788 37.9862 25.4952 39.2916 24.7615V26.8334C39.2916 34.0611 39.2916 37.676 37.0453 39.9204C35.2379 41.7297 32.545 42.0805 27.7916 42.1495V35.4584C27.7916 33.6663 27.7916 32.7712 27.4064 32.1042C27.1541 31.6672 26.7911 31.3043 26.3541 31.052C25.6871 30.6667 24.792 30.6667 23 30.6667C21.2079 30.6667 20.3128 30.6667 19.6458 31.052C19.2088 31.3043 18.8459 31.6672 18.5935 32.1042C18.2083 32.7712 18.2083 33.6663 18.2083 35.4584V42.1495C13.455 42.0805 10.762 41.7278 8.95463 39.9204C6.7083 37.676 6.7083 34.0611 6.7083 26.8334V24.7615C8.01434 25.4955 9.4881 25.8792 10.9863 25.875C13.2013 25.8764 15.3338 25.0349 16.951 23.5214C18.5988 25.04 20.7591 25.8806 23 25.875C25.2408 25.8806 27.4012 25.04 29.049 23.5214C30.6661 25.0349 32.8006 25.8764 35.0155 25.875Z" fill="#BFD2D9"/>
</svg>

