<svg xmlns="http://www.w3.org/2000/svg" width="32" height="34" viewBox="0 0 32 34" fill="none">
  <path d="M19.7836 23.6433C19.7591 23.3038 19.7426 22.9637 19.7343 22.6233C23.3261 22.2536 25.847 21.388 25.847 20.3779C25.8371 20.3779 25.8385 20.3354 25.8385 20.3198C23.1528 17.886 28.1663 0.599842 18.8339 0.948342C17.9453 0.277302 16.8491 -0.0559245 15.7395 0.00767564H15.7508C3.10986 0.968176 8.69973 17.2953 5.81814 20.3765H5.8125C5.82377 21.3653 8.25868 22.2153 11.7462 22.595C11.7363 22.8358 11.7152 23.1348 11.6701 23.6348C10.223 27.559 0.450909 26.4597 0 34.0091H15.7071H31.4143C30.9648 26.4583 21.2322 27.5576 19.7836 23.6433Z" fill="currentColor"/>
</svg>

