<svg xmlns="http://www.w3.org/2000/svg" width="40" height="40" viewBox="0 0 40 40" fill="none">
<g clip-path="url(#clip0_1136_5822)">
<rect width="40" height="40" fill="#EAEBEF"/>
<g clip-path="url(#clip1_1136_5822)">
<path d="M23.9316 29.5577C23.8447 28.3675 23.8203 27.1735 23.8583 25.9807L23.8569 26.0331C24.917 24.9278 25.5783 23.4974 25.7352 21.9701L25.738 21.9403C26.2157 21.9007 26.9696 21.4332 27.1894 19.5802C27.2552 19.261 27.23 18.9297 27.1165 18.6244C27.0031 18.3191 26.8061 18.0522 26.5483 17.8547L26.544 17.8518C27.3219 15.5002 28.9367 8.22417 23.5554 7.47333C23.0016 6.49583 21.584 6 19.741 6C12.3672 6.136 11.478 11.5972 13.09 17.8518C12.8295 18.0507 12.6308 18.3201 12.5172 18.6285C12.4036 18.9369 12.3799 19.2715 12.4489 19.5929L12.4475 19.5816C12.673 21.4317 13.4212 21.9021 13.8989 21.9417C14.0666 23.4861 14.749 24.928 15.835 26.0331C15.8698 27.2468 15.8425 28.4616 15.7532 29.6725L15.7603 29.5577C14.2976 33.5017 4.45091 32.3939 4 40H35.6454C35.1916 32.3939 25.39 33.5017 23.9302 29.5577H23.9316Z" fill="#BAC2D0"/>
</g>
</g>
<defs>
<clipPath id="clip0_1136_5822">
<rect width="40" height="40" rx="8" fill="white"/>
</clipPath>
<clipPath id="clip1_1136_5822">
<rect width="31" height="34" fill="white" transform="translate(4 6)"/>
</clipPath>
</defs>
</svg>
