<svg xmlns="http://www.w3.org/2000/svg" width="40" height="40" viewBox="0 0 40 40" fill="none">
<g clip-path="url(#clip0_1136_4900)">
<rect width="40" height="40" fill="#EAEBEF"/>
<path d="M23.7836 29.6433C23.7591 29.3038 23.7426 28.9637 23.7343 28.6233C27.3261 28.2536 29.847 27.388 29.847 26.3779C29.8371 26.3779 29.8385 26.3354 29.8385 26.3198C27.1528 23.886 32.1663 6.59984 22.8339 6.94834C21.9453 6.2773 20.8491 5.94408 19.7395 6.00768H19.7508C7.10986 6.96818 12.6997 23.2953 9.81814 26.3765H9.8125C9.82377 27.3653 12.2587 28.2153 15.7462 28.595C15.7363 28.8358 15.7152 29.1348 15.6701 29.6348C14.223 33.559 4.45091 32.4597 4 40.0091H19.7071H35.4143C34.9648 32.4583 25.2322 33.5576 23.7836 29.6433Z" fill="#BAC2D0"/>
</g>
<defs>
<clipPath id="clip0_1136_4900">
<rect width="40" height="40" rx="8" fill="white"/>
</clipPath>
</defs>
</svg>
