<svg xmlns="http://www.w3.org/2000/svg" width="31" height="34" viewBox="0 0 31 34" fill="none">
  <g clip-path="url(#clip0_1136_5753)">
    <path d="M19.9316 23.5577C19.8447 22.3675 19.8203 21.1735 19.8583 19.9807L19.8569 20.0331C20.917 18.9278 21.5783 17.4974 21.7352 15.9701L21.738 15.9403C22.2157 15.9007 22.9696 15.4332 23.1894 13.5802C23.2552 13.261 23.23 12.9297 23.1165 12.6244C23.0031 12.3191 22.8061 12.0522 22.5483 11.8547L22.544 11.8518C23.3219 9.50017 24.9367 2.22417 19.5554 1.47333C19.0016 0.495833 17.584 0 15.741 0C8.36718 0.136 7.47805 5.59725 9.09005 11.8518C8.8295 12.0507 8.63077 12.3201 8.51721 12.6285C8.40364 12.9369 8.37995 13.2715 8.44891 13.5929L8.4475 13.5816C8.67295 15.4317 9.42118 15.9021 9.89886 15.9417C10.0666 17.4861 10.749 18.928 11.835 20.0331C11.8698 21.2468 11.8425 22.4616 11.7532 23.6725L11.7603 23.5577C10.2976 27.5017 0.450909 26.3939 0 34H31.6454C31.1916 26.3939 21.39 27.5017 19.9302 23.5577H19.9316Z" fill="currentColor"/>
  </g>
  <defs>
    <clipPath id="clip0_1136_5753">
      <rect width="31" height="34" fill="white"/>
    </clipPath>
  </defs>
</svg>

